<?xml version="1.0" encoding="UTF-8"?>
<svg version="1.1" xmlns="http://www.w3.org/2000/svg" width="380" height="142">
<path d="M0 0 C125.4 0 250.8 0 380 0 C380 46.86 380 93.72 380 142 C254.6 142 129.2 142 0 142 C0 95.14 0 48.28 0 0 Z " fill="#020202" transform="translate(0,0)"/>
<path d="M0 0 C-1.5548764 4.03527446 -4.17821081 6.07508555 -7.5 8.75 C-8.96953125 9.94882812 -8.96953125 9.94882812 -10.46875 11.171875 C-13 13 -13 13 -15 13 C-15 13.99 -15 14.98 -15 16 C-12.03 16.33 -9.06 16.66 -6 17 C-6 16.34 -6 15.68 -6 15 C-5.34 15 -4.68 15 -4 15 C-4 14.34 -4 13.68 -4 13 C-2.1015625 11.34375 -2.1015625 11.34375 0.375 9.5 C2.72904362 7.73633557 4.9191905 6.0808095 7 4 C9.875 4.3125 9.875 4.3125 13 5 C13.639375 5.03867187 14.27875 5.07734375 14.9375 5.1171875 C18.30839057 6.56003081 19.48371073 9.7077798 21.125 12.8125 C21.47175781 13.44220703 21.81851563 14.07191406 22.17578125 14.72070312 C23.8526204 17.78205889 25.43889643 20.87779285 27 24 C27.33 17.73 27.66 11.46 28 5 C32.07977048 4.20840274 34.05918162 3.91702701 38 5 C42.40697217 8.15631009 45.96156823 12.35723312 49.55004883 16.38647461 C53.93941871 21.27102513 58.8352814 25.52767222 63.79296875 29.81640625 C65.83443373 31.83619195 66.93122598 33.36687519 68 36 C68.99 36 69.98 36 71 36 C71 25.44 71 14.88 71 4 C72.65 4 74.3 4 76 4 C76 16.54 76 29.08 76 42 C66.98404255 42 66.98404255 42 64.4375 39.5 C63.86902344 38.95214844 63.30054688 38.40429688 62.71484375 37.83984375 C60.32940848 35.28052709 58.01750471 32.66875274 55.74609375 30.0078125 C51.23439216 24.81986034 46.22315118 20.22301242 40.9921875 15.7734375 C38.56841921 13.61580847 36.2945605 11.2945605 34 9 C34 19.89 34 30.78 34 42 C32.02 42 30.04 42 28 42 C27.505 38.04 27.505 38.04 27 34 C25.72757467 34.97709698 24.45720454 35.95687005 23.1875 36.9375 C22.37152344 37.5665625 21.55554688 38.195625 20.71484375 38.84375 C18.82188811 40.34721981 16.96184757 41.89266985 15.12890625 43.46875 C14.17886719 44.2834375 13.22882813 45.098125 12.25 45.9375 C11.36828125 46.70964844 10.4865625 47.48179688 9.578125 48.27734375 C6.72683971 50.18252074 5.35299517 50.39198685 2 50 C2 49.34 2 48.68 2 48 C1.38253906 47.82984375 0.76507813 47.6596875 0.12890625 47.484375 C-1.65755597 46.97318033 -3.43591447 46.43315479 -5.20703125 45.87109375 C-7.91277781 44.98390518 -7.91277781 44.98390518 -10.38671875 44.47265625 C-14.85351409 43.15522447 -17.00649088 41.30466836 -19.26953125 37.2890625 C-20.73481949 34.45140201 -22.0738985 31.57018455 -23.37109375 28.65234375 C-24.87504798 25.0057607 -24.87504798 25.0057607 -27 22 C-27 21.01 -27 20.02 -27 19 C-27.66 19 -28.32 19 -29 19 C-28.43896448 15.46193382 -27.35471373 14.08353334 -24.578125 11.87109375 C-23.88203125 11.31099609 -23.1859375 10.75089844 -22.46875 10.17382812 C-21.37046875 9.3143457 -21.37046875 9.3143457 -20.25 8.4375 C-19.53328125 7.86064453 -18.8165625 7.28378906 -18.078125 6.68945312 C-7.62082545 -1.64370745 -7.62082545 -1.64370745 0 0 Z " fill="#090909" transform="translate(115,37)"/>
<path d="M0 0 C-1.5548764 4.03527446 -4.17821081 6.07508555 -7.5 8.75 C-8.96953125 9.94882812 -8.96953125 9.94882812 -10.46875 11.171875 C-13 13 -13 13 -15 13 C-15 13.99 -15 14.98 -15 16 C-12.03 16.33 -9.06 16.66 -6 17 C-6 16.34 -6 15.68 -6 15 C-5.34 15 -4.68 15 -4 15 C-4 14.34 -4 13.68 -4 13 C-2.1015625 11.34375 -2.1015625 11.34375 0.375 9.5 C2.72904362 7.73633557 4.9191905 6.0808095 7 4 C10.80909895 4.32417863 12.78372163 4.85581442 16 7 C14.04653795 8.67268922 12.08770186 10.33821581 10.125 12 C9.56941406 12.47695313 9.01382813 12.95390625 8.44140625 13.4453125 C4.2265625 17 4.2265625 17 2 17 C1.67 17.99 1.34 18.98 1 20 C0.34 20 -0.32 20 -1 20 C-1 20.66 -1 21.32 -1 22 C-2.65 22.66 -4.3 23.32 -6 24 C-5.71125 24.54269531 -5.4225 25.08539063 -5.125 25.64453125 C-4.75375 26.35996094 -4.3825 27.07539062 -4 27.8125 C-3.443125 28.87404297 -3.443125 28.87404297 -2.875 29.95703125 C-2 32 -2 32 -2 35 C2.403606 33.66557394 5.14241507 31.30702993 8.44921875 28.2421875 C10 27 10 27 12 27 C11.505 24.03 11.505 24.03 11 21 C12.32 20.67 13.64 20.34 15 20 C16.23310059 22.53873652 17.00716475 24.46980882 16.96875 27.3125 C15.52474774 31.31844176 12.71655847 33.22449706 9.4375 35.8125 C8.82197266 36.31458984 8.20644531 36.81667969 7.57226562 37.33398438 C6.05720915 38.56716988 4.52977263 39.78511798 3 41 C3.5259375 42.1446875 3.5259375 42.1446875 4.0625 43.3125 C5 46 5 46 4 49 C1.24883766 48.04490216 -1.50092088 47.08606018 -4.25 46.125 C-5.02730469 45.85558594 -5.80460937 45.58617187 -6.60546875 45.30859375 C-7.35957031 45.04433594 -8.11367187 44.78007813 -8.890625 44.5078125 C-9.58188477 44.26691895 -10.27314453 44.02602539 -10.98535156 43.77783203 C-14.94148473 42.25041562 -17.21112322 41.36155453 -19.0703125 37.41015625 C-19.40933594 36.70826172 -19.74835938 36.00636719 -20.09765625 35.28320312 C-20.43667969 34.55037109 -20.77570313 33.81753906 -21.125 33.0625 C-21.81349731 31.61511996 -22.50354526 30.16847629 -23.1953125 28.72265625 C-23.49453613 28.08078369 -23.79375977 27.43891113 -24.10205078 26.77758789 C-25.08683407 24.73979913 -25.08683407 24.73979913 -27 22 C-27 21.01 -27 20.02 -27 19 C-27.66 19 -28.32 19 -29 19 C-28.43896448 15.46193382 -27.35471373 14.08353334 -24.578125 11.87109375 C-23.88203125 11.31099609 -23.1859375 10.75089844 -22.46875 10.17382812 C-21.37046875 9.3143457 -21.37046875 9.3143457 -20.25 8.4375 C-19.53328125 7.86064453 -18.8165625 7.28378906 -18.078125 6.68945312 C-7.62082545 -1.64370745 -7.62082545 -1.64370745 0 0 Z " fill="#F0F0F0" transform="translate(115,37)"/>
<path d="M0 0 C1.65 0 3.3 0 5 0 C5 12.54 5 25.08 5 38 C-3 38 -3 38 -5.7565918 36.15161133 C-6.96569214 34.87966919 -6.96569214 34.87966919 -8.19921875 33.58203125 C-9.09833984 32.65712891 -9.99746094 31.73222656 -10.92382812 30.77929688 C-11.84559011 29.79086605 -12.76681012 28.80192954 -13.6875 27.8125 C-14.61853875 26.8412702 -15.55146859 25.87184952 -16.48632812 24.90429688 C-18.2108041 23.11029559 -19.92690867 21.30818053 -21.6315918 19.49536133 C-24.04549339 16.95206805 -26.51347899 14.47214064 -29 12 C-29.86625 11.113125 -30.7325 10.22625 -31.625 9.3125 C-33.97085755 6.88724324 -33.97085755 6.88724324 -37 5 C-37 16.22 -37 27.44 -37 39 C-38.65 39 -40.3 39 -42 39 C-42 26.46 -42 13.92 -42 1 C-33 1 -33 1 -30.6171875 2.25 C-30.04226562 2.8275 -29.46734375 3.405 -28.875 4 C-28.22273437 4.639375 -27.57046875 5.27875 -26.8984375 5.9375 C-24.46090735 8.58568091 -22.10174415 11.2907043 -19.7734375 14.03515625 C-17.99532047 16.00518459 -16.14027265 17.71296827 -14.125 19.4375 C-9.54163955 23.39585676 -5.28227634 27.71772366 -1 32 C-0.67 21.44 -0.34 10.88 0 0 Z " fill="#EBEBEB" transform="translate(237,41)"/>
<path d="M0 0 C12.21 0 24.42 0 37 0 C37 1.32 37 2.64 37 4 C26.44 4 15.88 4 5 4 C5 7.63 5 11.26 5 15 C15.23 15 25.46 15 36 15 C36 16.65 36 18.3 36 20 C25.77 20 15.54 20 5 20 C5 24.29 5 28.58 5 33 C15.56 33 26.12 33 37 33 C37 34.32 37 35.64 37 37 C24.79 37 12.58 37 0 37 C0 24.79 0 12.58 0 0 Z " fill="#CCCCCC" transform="translate(247,42)"/>
<path d="M0 0 C1.65 0 3.3 0 5 0 C5 12.54 5 25.08 5 38 C-4.01595745 38 -4.01595745 38 -6.5625 35.5 C-7.13097656 34.95214844 -7.69945312 34.40429688 -8.28515625 33.83984375 C-10.67059152 31.28052709 -12.98249529 28.66875274 -15.25390625 26.0078125 C-19.76560784 20.81986034 -24.77684882 16.22301242 -30.0078125 11.7734375 C-32.43158079 9.61580847 -34.7054395 7.2945605 -37 5 C-37 15.89 -37 26.78 -37 38 C-38.32 38 -39.64 38 -41 38 C-41 25.79 -41 13.58 -41 1 C-33 1 -33 1 -30.9777832 2.11401367 C-30.27141724 2.88322144 -30.27141724 2.88322144 -29.55078125 3.66796875 C-29.01259766 4.23193359 -28.47441406 4.79589844 -27.91992188 5.37695312 C-27.38947266 5.97443359 -26.85902344 6.57191406 -26.3125 7.1875 C-25.77044922 7.76564453 -25.22839844 8.34378906 -24.66992188 8.93945312 C-23.60001068 10.08163817 -22.53725339 11.23057149 -21.48217773 12.38647461 C-17.0337253 17.22914009 -12.17343086 21.52013552 -7.20703125 25.81640625 C-5.16556627 27.83619195 -4.06877402 29.36687519 -3 32 C-2.01 32 -1.02 32 0 32 C0 21.44 0 10.88 0 0 Z " fill="#CECECE" transform="translate(186,41)"/>
<path d="M0 0 C2.07229211 -0.00436681 4.14244072 -0.04069138 6.21435547 -0.07861328 C8.18855469 -0.08441406 8.18855469 -0.08441406 10.20263672 -0.09033203 C11.40259277 -0.0985498 12.60254883 -0.10676758 13.83886719 -0.11523438 C17.87965311 0.46703673 20.05414623 1.82727422 23.21044922 4.37060547 C24.25657233 7.15349608 24.10962291 9.34581608 24.21044922 12.37060547 C22.89044922 12.37060547 21.57044922 12.37060547 20.21044922 12.37060547 C19.75669922 11.40123047 19.30294922 10.43185547 18.83544922 9.43310547 C17.55258701 6.29980965 17.55258701 6.29980965 15.21044922 5.37060547 C10.90329421 5.10015334 6.58763357 5.13899517 2.27294922 5.12060547 C1.06703125 5.09998047 -0.13888672 5.07935547 -1.38134766 5.05810547 C-3.11288086 5.05037109 -3.11288086 5.05037109 -4.87939453 5.04248047 C-6.47062134 5.02846191 -6.47062134 5.02846191 -8.09399414 5.01416016 C-10.77492281 5.1707411 -10.77492281 5.1707411 -12.63623047 6.57861328 C-14.16653642 8.95635368 -14.16230565 10.55207561 -14.15283203 13.37060547 C-14.1521875 14.33998047 -14.15154297 15.30935547 -14.15087891 16.30810547 C-14.13476562 17.31873047 -14.11865234 18.32935547 -14.10205078 19.37060547 C-14.10527344 20.38123047 -14.10849609 21.39185547 -14.11181641 22.43310547 C-14.2196388 28.23966722 -14.2196388 28.23966722 -11.78955078 33.37060547 C-8.81632638 33.8384476 -8.81632638 33.8384476 -5.32080078 33.76904297 C-3.38140625 33.77484375 -3.38140625 33.77484375 -1.40283203 33.78076172 C-0.72816895 33.77447754 -0.05350586 33.76819336 0.64160156 33.76171875 C2.70298505 33.7456636 4.76240812 33.76156144 6.82373047 33.78076172 C8.11666016 33.77689453 9.40958984 33.77302734 10.74169922 33.76904297 C11.9334375 33.76565918 13.12517578 33.76227539 14.35302734 33.75878906 C15.29597656 33.63068848 16.23892578 33.50258789 17.21044922 33.37060547 C19.15554922 30.45295546 19.66321238 28.74523262 20.21044922 25.37060547 C21.86044922 25.37060547 23.51044922 25.37060547 25.21044922 25.37060547 C25.52084222 29.3281162 25.59724246 31.70115563 23.58544922 35.18310547 C17.5458293 40.74591328 9.40231017 39.70358433 1.71044922 39.68310547 C-0.10519531 39.70727539 -0.10519531 39.70727539 -1.95751953 39.73193359 C-3.12927734 39.73257813 -4.30103516 39.73322266 -5.50830078 39.73388672 C-7.10061523 39.73835815 -7.10061523 39.73835815 -8.72509766 39.74291992 C-12.38196639 39.29863018 -14.70816752 38.38897758 -17.78955078 36.37060547 C-20.81034878 31.15884525 -20.11949218 25.21696094 -20.10205078 19.37060547 C-20.11816406 18.29037109 -20.13427734 17.21013672 -20.15087891 16.09716797 C-20.15152344 15.05302734 -20.15216797 14.00888672 -20.15283203 12.93310547 C-20.15581299 11.98564453 -20.15879395 11.03818359 -20.16186523 10.06201172 C-19.71174094 6.80812959 -18.76949853 4.98105813 -16.78955078 2.37060547 C-12.08557062 -1.06926944 -5.55426834 -0.00131214 0 0 Z " fill="#DEDEDE" transform="translate(59.78955078125,40.62939453125)"/>
<path d="M0 0 C3.17265557 -0.55521472 5.2508569 -0.49942873 7.96875 1.3125 C11.96413616 4.75467885 15.47469219 8.50757743 18.7734375 12.6171875 C19.97175539 14.14103109 19.97175539 14.14103109 22 15 C22.21140625 14.45859375 22.4228125 13.9171875 22.640625 13.359375 C24.50472552 10.12398215 27.04131184 7.76709802 29.75 5.25 C30.51957031 4.49009766 30.51957031 4.49009766 31.3046875 3.71484375 C34.05321422 1.15277488 35.60316375 0.03840351 39.390625 -0.328125 C40.68226563 -0.16570313 40.68226563 -0.16570313 42 0 C37.87566838 4.97034836 33.51977867 9.51538794 28.85546875 13.984375 C26.78743649 15.95459315 26.78743649 15.95459315 26 19 C26.58426758 19.259021 27.16853516 19.51804199 27.77050781 19.78491211 C30.16639957 21.09068886 31.75252382 22.50907272 33.671875 24.44140625 C34.33574219 25.10720703 34.99960937 25.77300781 35.68359375 26.45898438 C36.70646484 27.50022461 36.70646484 27.50022461 37.75 28.5625 C38.44738281 29.26052734 39.14476562 29.95855469 39.86328125 30.67773438 C45 35.85968842 45 35.85968842 45 37 C41.9375 37.5 41.9375 37.5 38 37 C35.93992528 35.17075818 34.33152942 33.19476222 32.62890625 31.03125 C30.68538953 28.60767999 28.47020616 26.8693452 26 25 C24.64852862 23.68505488 23.30887458 22.35735142 22 21 C18.96020675 22.34524564 17.01688618 23.79902023 14.79296875 26.2578125 C14.20580078 26.88300781 13.61863281 27.50820312 13.01367188 28.15234375 C11.79770077 29.46585264 10.59187428 30.78882714 9.39648438 32.12109375 C4.85317873 36.90717145 4.85317873 36.90717145 0.05078125 37.4296875 C-0.95597656 37.28789063 -1.96273438 37.14609375 -3 37 C2.55035203 30.21623641 8.76442027 24.14477032 15 18 C13.68080338 15.06858448 12.26599211 13.03317275 9.9609375 10.80078125 C9.38085938 10.23166016 8.80078125 9.66253906 8.203125 9.07617188 C7.59984375 8.49416016 6.9965625 7.91214844 6.375 7.3125 C4.22845358 5.22708939 2.10610824 3.12687269 0 1 C0 0.67 0 0.34 0 0 Z " fill="#E0E0E0" transform="translate(289,42)"/>
<path d="M0 0 C11.88 0 23.76 0 36 0 C36 0.99 36 1.98 36 3 C25.11 3 14.22 3 3 3 C3 7.29 3 11.58 3 16 C13.23 16 23.46 16 34 16 C34 16.99 34 17.98 34 19 C32.61494263 19.029729 32.61494263 19.029729 31.2019043 19.06005859 C27.77438826 19.13817739 24.34731202 19.22486997 20.92016602 19.31738281 C19.43717788 19.35565347 17.95409752 19.39050978 16.47094727 19.421875 C14.33836928 19.467568 12.20642509 19.52555338 10.07421875 19.5859375 C8.79119873 19.6173584 7.50817871 19.6487793 6.1862793 19.68115234 C2.84612541 19.76379228 2.84612541 19.76379228 0 22 C0 14.74 0 7.48 0 0 Z " fill="#FAFAFA" transform="translate(248,42)"/>
<path d="M0 0 C8 0 8 0 10.3125 1.53125 C11.1478125 2.50578125 11.1478125 2.50578125 12 3.5 C12.5775 4.1496875 13.155 4.799375 13.75 5.46875 C14.1625 5.9740625 14.575 6.479375 15 7 C14.01 7.495 14.01 7.495 13 8 C12.34 7.67 11.68 7.34 11 7 C11.33 8.32 11.66 9.64 12 11 C11.236875 10.21625 10.47375 9.4325 9.6875 8.625 C7.09108195 5.92742283 7.09108195 5.92742283 4 4 C4 14.89 4 25.78 4 37 C2.68 37 1.36 37 0 37 C0 24.79 0 12.58 0 0 Z " fill="#E8E8E8" transform="translate(145,42)"/>
<path d="M0 0 C0.66 0 1.32 0 2 0 C2 12.21 2 24.42 2 37 C1.34 37 0.68 37 0 37 C-0.33 34.36 -0.66 31.72 -1 29 C-2.27242533 29.97709698 -3.54279546 30.95687005 -4.8125 31.9375 C-5.62847656 32.5665625 -6.44445312 33.195625 -7.28515625 33.84375 C-9.17811189 35.34721981 -11.03815243 36.89266985 -12.87109375 38.46875 C-13.82113281 39.2834375 -14.77117187 40.098125 -15.75 40.9375 C-16.63171875 41.70964844 -17.5134375 42.48179688 -18.421875 43.27734375 C-21.27316029 45.18252074 -22.64700483 45.39198685 -26 45 C-26 44.34 -26 43.68 -26 43 C-25.12214844 42.75765625 -24.24429688 42.5153125 -23.33984375 42.265625 C-19.72064353 40.8941386 -17.49625363 39.25369686 -14.5625 36.75 C-13.61890625 35.95207031 -12.6753125 35.15414062 -11.703125 34.33203125 C-10.81109375 33.56246094 -9.9190625 32.79289062 -9 32 C-8.25234375 31.36449219 -7.5046875 30.72898437 -6.734375 30.07421875 C-5.14926859 28.72430089 -3.57336582 27.36358371 -2 26 C-3.42087484 21.32115961 -5.37185278 17.07311174 -7.625 12.75 C-11 6.26785714 -11 6.26785714 -11 4 C-11.99 3.67 -12.98 3.34 -14 3 C-13.01 2.34 -12.02 1.68 -11 1 C-9.7069894 3.24923704 -8.41555023 5.49935185 -7.125 7.75 C-6.76019531 8.38421875 -6.39539063 9.0184375 -6.01953125 9.671875 C-4.25696474 12.74835472 -2.58653999 15.82692003 -1 19 C-0.67 12.73 -0.34 6.46 0 0 Z " fill="#454545" transform="translate(143,42)"/>
<path d="M0 0 C1.32 0 2.64 0 4 0 C6.64 4.95 9.28 9.9 12 15 C13.78821774 12.31767339 15.20142604 9.69711039 16.625 6.8125 C17.07101563 5.91144531 17.51703125 5.01039062 17.9765625 4.08203125 C18.31429687 3.39496094 18.65203125 2.70789063 19 2 C19.66 2 20.32 2 21 2 C21.06993164 2.54938232 21.13986328 3.09876465 21.21191406 3.66479492 C21.5411254 6.17489905 21.89530618 8.68087508 22.25 11.1875 C22.35957031 12.05181641 22.46914062 12.91613281 22.58203125 13.80664062 C23.33106691 18.95133293 24.18288483 22.19077144 28 26 C25.3813863 25.6388119 24.24144033 25.26558437 22.4375 23.28125 C20.02634916 19.45485846 19.75701593 15.42563161 19 11 C17.35 14.3 15.7 17.6 14 21 C13.01 21 12.02 21 11 21 C9.35 17.04 7.7 13.08 6 9 C5.34 13.29 4.68 17.58 4 22 C3.34 22 2.68 22 2 22 C2.04600342 21.44014404 2.09200684 20.88028809 2.1394043 20.3034668 C2.33861807 17.76579383 2.51330991 15.22700811 2.6875 12.6875 C2.76033203 11.80642578 2.83316406 10.92535156 2.90820312 10.01757812 C2.96298828 9.17001953 3.01777344 8.32246094 3.07421875 7.44921875 C3.16062622 6.27879028 3.16062622 6.27879028 3.2487793 5.0847168 C2.93485931 2.45413512 2.01131557 1.64353215 0 0 Z " fill="#B3B3B3" transform="translate(109,116)"/>
<path d="M0 0 C1.65 0 3.3 0 5 0 C5.32470459 4.13998349 5.4304413 6.33999001 3.125 9.875 C-0.32855401 13.32855401 -2.46207081 13.12811582 -7.25 13.1328125 C-8.4978125 13.13410156 -9.745625 13.13539062 -11.03125 13.13671875 C-12.3409375 13.13285156 -13.650625 13.12898438 -15 13.125 C-16.96453125 13.13080078 -16.96453125 13.13080078 -18.96875 13.13671875 C-20.84046875 13.13478516 -20.84046875 13.13478516 -22.75 13.1328125 C-23.89984375 13.13168457 -25.0496875 13.13055664 -26.234375 13.12939453 C-29 13 -29 13 -31 12 C-31 11.34 -31 10.68 -31 10 C-30.23333008 9.9906543 -29.46666016 9.98130859 -28.67675781 9.97167969 C-25.20051897 9.91797227 -21.72562526 9.83432424 -18.25 9.75 C-17.0434375 9.73582031 -15.836875 9.72164062 -14.59375 9.70703125 C-13.43359375 9.67480469 -12.2734375 9.64257812 -11.078125 9.609375 C-10.00981445 9.58842773 -8.94150391 9.56748047 -7.84082031 9.54589844 C-4.35070376 8.87522977 -3.16351715 7.76935265 -1 5 C-0.20318682 2.35815459 -0.20318682 2.35815459 0 0 Z " fill="#F8F8F8" transform="translate(80,66)"/>
<path d="M0 0 C1.32 0 2.64 0 4 0 C4 12.21 4 24.42 4 37 C2.35 36.67 0.7 36.34 -1 36 C-0.67 24.12 -0.34 12.24 0 0 Z " fill="#ECECEC" transform="translate(238,42)"/>
<path d="M0 0 C1.5 1.3125 1.5 1.3125 3 3 C3 3.99 3 4.98 3 6 C3.66 6.33 4.32 6.66 5 7 C3.8803014 8.00593243 2.7540588 9.0045849 1.625 10 C0.68527344 10.8353125 0.68527344 10.8353125 -0.2734375 11.6875 C-2 13 -2 13 -4 13 C-4 13.66 -4 14.32 -4 15 C-4.66 15 -5.32 15 -6 15 C-6 15.66 -6 16.32 -6 17 C-8.97 16.67 -11.94 16.34 -15 16 C-15 15.01 -15 14.02 -15 13 C-12.91047491 11.2106602 -10.85275161 9.59796529 -8.625 8 C-3.80135103 4.53706777 -3.80135103 4.53706777 0 0 Z " fill="#0A0A0A" transform="translate(115,37)"/>
<path d="M0 0 C0.99 0 1.98 0 3 0 C3 12.21 3 24.42 3 37 C0.69 37 -1.62 37 -4 37 C-4.66 35.68 -5.32 34.36 -6 33 C-3.03 32.505 -3.03 32.505 0 32 C0 21.44 0 10.88 0 0 Z " fill="#F6F6F6" transform="translate(187,42)"/>
<path d="M0 0 C0.66 0 1.32 0 2 0 C2 11.88 2 23.76 2 36 C2.66 36 3.32 36 4 36 C4 25.44 4 14.88 4 4 C4.33 4 4.66 4 5 4 C5 15.22 5 26.44 5 38 C3.35 38 1.7 38 0 38 C0 25.46 0 12.92 0 0 Z " fill="#B3B3B3" transform="translate(195,42)"/>
<path d="M0 0 C0.66 0 1.32 0 2 0 C2.42152344 1.05960937 2.84304687 2.11921875 3.27734375 3.2109375 C3.83068362 4.59897649 4.38407153 5.98699633 4.9375 7.375 C5.21529297 8.07367188 5.49308594 8.77234375 5.77929688 9.4921875 C7.28466196 13.29232246 7.28466196 13.29232246 9 17 C7.35 17 5.7 17 4 17 C4 15.35 4 13.7 4 12 C1.69 12.33 -0.62 12.66 -3 13 C-3.33 14.32 -3.66 15.64 -4 17 C-4.66 17 -5.32 17 -6 17 C-4.89061647 10.69403048 -3.06802099 5.62470514 0 0 Z " fill="#858585" transform="translate(142,121)"/>
<path d="M0 0 C0.66 0 1.32 0 2 0 C2 10.56 2 21.12 2 32 C1.01 32 0.02 32 -1 32 C-1.02465504 27.60343827 -1.04283842 23.2069128 -1.05493164 18.81030273 C-1.05997121 17.31355082 -1.06680287 15.81680384 -1.07543945 14.32006836 C-1.08752159 12.17300193 -1.09323191 10.02600038 -1.09765625 7.87890625 C-1.10289307 6.5854126 -1.10812988 5.29191895 -1.11352539 3.95922852 C-1 1 -1 1 0 0 Z " fill="#F8F8F8" transform="translate(146,46)"/>
<path d="M0 0 C3.20472454 -0.56082679 5.26834327 -0.49204985 8.00390625 1.34765625 C12.11121152 4.89381165 15.6654194 8.72756861 19 13 C18.01 13 17.02 13 16 13 C15.34 13.66 14.68 14.32 14 15 C11.66265901 12.69152056 9.33081534 10.37756659 7 8.0625 C6.33226562 7.40314453 5.66453125 6.74378906 4.9765625 6.06445312 C4.34492188 5.43603516 3.71328125 4.80761719 3.0625 4.16015625 C2.47597656 3.57886963 1.88945312 2.99758301 1.28515625 2.39868164 C0 1 0 1 0 0 Z " fill="#DDDDDD" transform="translate(289,42)"/>
<path d="M0 0 C1.65 0 3.3 0 5 0 C3.68 0.33 2.36 0.66 1 1 C1 13.21 1 25.42 1 38 C-4.37985925 36.92402815 -5.48487252 35.91685634 -9 32 C-8.34 30.68 -7.68 29.36 -7 28 C-2.125 30.875 -2.125 30.875 -1 32 C-0.67 21.44 -0.34 10.88 0 0 Z " fill="#BFBFBF" transform="translate(237,41)"/>
<path d="M0 0 C0.53012695 0.32145996 1.06025391 0.64291992 1.60644531 0.97412109 C4.60488087 2.25925229 7.03807071 2.32183219 10.296875 2.4140625 C11.50214844 2.45273438 12.70742188 2.49140625 13.94921875 2.53125 C15.20347656 2.5621875 16.45773438 2.593125 17.75 2.625 C19.65458984 2.68300781 19.65458984 2.68300781 21.59765625 2.7421875 C24.7316257 2.83644222 27.86558949 2.92205166 31 3 C31 3.33 31 3.66 31 4 C22.42 4 13.84 4 5 4 C5 4.66 5 5.32 5 6 C17.87 6.495 17.87 6.495 31 7 C31 7.33 31 7.66 31 8 C26.62512669 8.08738991 22.25047922 8.140524 17.875 8.1875 C16.6375 8.21263672 15.4 8.23777344 14.125 8.26367188 C12.92617188 8.27333984 11.72734375 8.28300781 10.4921875 8.29296875 C9.39245605 8.3086792 8.29272461 8.32438965 7.15966797 8.34057617 C3.55155885 7.95166316 1.13122758 6.78838888 -2 5 C-1.34 3.35 -0.68 1.7 0 0 Z " fill="#C0C0C0" transform="translate(44,72)"/>
<path d="M0 0 C1.3303125 0.4021875 1.3303125 0.4021875 2.6875 0.8125 C1.22432393 2.54880227 -0.24772616 4.27535896 -1.73828125 5.98828125 C-2.94087172 7.38185383 -4.10461971 8.8090377 -5.25 10.25 C-8.23455816 12.51102891 -10.68175798 12.09178785 -14.3125 11.8125 C-12.87461887 10.09791323 -11.42548754 8.39558403 -9.95703125 6.70703125 C-8.55562195 5.09258111 -7.18111742 3.4548409 -5.8125 1.8125 C-3.3125 -0.1875 -3.3125 -0.1875 0 0 Z " fill="#E2E2E2" transform="translate(300.3125,67.1875)"/>
<path d="M0 0 C2.31 0 4.62 0 7 0 C7.66 0.66 8.32 1.32 9 2 C8.8359375 3.953125 8.8359375 3.953125 8.375 6.25 C7.86971576 9.76428025 7.91248337 11.60611684 9.9375 14.5625 C10.618125 15.366875 11.29875 16.17125 12 17 C8.11980141 15.74155722 6.0588158 14.57583797 4 11 C4 10.01 4 9.02 4 8 C4.66 7.67 5.32 7.34 6 7 C6 5.35 6 3.7 6 2 C4.68 1.67 3.36 1.34 2 1 C2 5.95 2 10.9 2 16 C1.34 16 0.68 16 0 16 C0 10.72 0 5.44 0 0 Z " fill="#B1B1B1" transform="translate(183,121)"/>
<path d="M0 0 C1.32 0 2.64 0 4 0 C5.17713663 2.0780065 6.34171974 4.16151783 7.5 6.25 C7.83386719 6.83652344 8.16773437 7.42304687 8.51171875 8.02734375 C10.36076806 11.38582107 11 13.06645784 11 17 C11.99 17 12.98 17 14 17 C14 18.32 14 19.64 14 21 C13.01 21 12.02 21 11 21 C9.35 17.04 7.7 13.08 6 9 C5.34 13.29 4.68 17.58 4 22 C3.34 22 2.68 22 2 22 C2.04600342 21.44014404 2.09200684 20.88028809 2.1394043 20.3034668 C2.33861807 17.76579383 2.51330991 15.22700811 2.6875 12.6875 C2.76033203 11.80642578 2.83316406 10.92535156 2.90820312 10.01757812 C2.96298828 9.17001953 3.01777344 8.32246094 3.07421875 7.44921875 C3.16062622 6.27879028 3.16062622 6.27879028 3.2487793 5.0847168 C2.93485931 2.45413512 2.01131557 1.64353215 0 0 Z " fill="#B9B9B9" transform="translate(109,116)"/>
<path d="M0 0 C1.72669922 0.00580078 1.72669922 0.00580078 3.48828125 0.01171875 C4.68582031 0.03621094 5.88335937 0.06070313 7.1171875 0.0859375 C8.92509766 0.08787109 8.92509766 0.08787109 10.76953125 0.08984375 C19.71141582 0.18016582 19.71141582 0.18016582 21.9921875 2.4609375 C13.0821875 2.1309375 4.1721875 1.8009375 -5.0078125 1.4609375 C-5.6678125 2.7809375 -6.3278125 4.1009375 -7.0078125 5.4609375 C-7.3378125 6.1209375 -7.6678125 6.7809375 -8.0078125 7.4609375 C-8.09181779 9.05541214 -8.11508717 10.65334295 -8.10546875 12.25 C-8.10224609 13.19101562 -8.09902344 14.13203125 -8.09570312 15.1015625 C-8.08732422 16.08640625 -8.07894531 17.07125 -8.0703125 18.0859375 C-8.06580078 19.07851563 -8.06128906 20.07109375 -8.05664062 21.09375 C-8.04483395 23.5495391 -8.0283665 26.00520854 -8.0078125 28.4609375 C-11.43460461 25.03414539 -10.37690935 20.23171363 -10.3828125 15.5859375 C-10.40730469 14.57917969 -10.43179688 13.57242188 -10.45703125 12.53515625 C-10.46089844 11.56449219 -10.46476562 10.59382813 -10.46875 9.59375 C-10.47696777 8.70574707 -10.48518555 7.81774414 -10.49365234 6.90283203 C-9.3201024 1.00441668 -5.47258878 -0.04260449 0 0 Z " fill="#414141" transform="translate(55.0078125,44.5390625)"/>
<path d="M0 0 C2 2 2 2 2 5 C0.3203125 6.53515625 0.3203125 6.53515625 -1.875 8.0625 C-4.11013087 9.63670507 -6.06257966 11.06257966 -8 13 C-9.32 13 -10.64 13 -12 13 C-12.33 11.68 -12.66 10.36 -13 9 C-11.96875 8.443125 -10.9375 7.88625 -9.875 7.3125 C-6.2075445 5.22854871 -3.16569055 2.77963073 0 0 Z " fill="#545454" transform="translate(125,59)"/>
<path d="M0 0 C1.5 1.3125 1.5 1.3125 3 3 C3 3.99 3 4.98 3 6 C3.66 6.33 4.32 6.66 5 7 C3.8803014 8.00593243 2.7540588 9.0045849 1.625 10 C0.68527344 10.8353125 0.68527344 10.8353125 -0.2734375 11.6875 C-2 13 -2 13 -4 13 C-4 13.66 -4 14.32 -4 15 C-4.66 15 -5.32 15 -6 15 C-6 15.66 -6 16.32 -6 17 C-8.97 16.67 -11.94 16.34 -15 16 C-15 15.01 -15 14.02 -15 13 C-12.5 10.8125 -12.5 10.8125 -10 9 C-9.34 9.33 -8.68 9.66 -8 10 C-9.485 12.475 -9.485 12.475 -11 15 C-6.26915586 13.56641087 -2.15975813 10.80627924 1 7 C1 5.68 1 4.36 1 3 C0.34 2.67 -0.32 2.34 -1 2 C-0.67 1.34 -0.34 0.68 0 0 Z " fill="#5A5A5A" transform="translate(115,37)"/>
<path d="M0 0 C3.68006479 2.45337652 4.46120421 5.05436976 6 9 C6.55788482 10.31446834 7.12018201 11.62707534 7.6875 12.9375 C8.3371875 14.4534375 8.3371875 14.4534375 9 16 C7.35 16 5.7 16 4 16 C3.87882813 15.37351563 3.75765625 14.74703125 3.6328125 14.1015625 C3.46523437 13.28429687 3.29765625 12.46703125 3.125 11.625 C2.96257812 10.81289062 2.80015625 10.00078125 2.6328125 9.1640625 C2.13341068 6.81326077 2.13341068 6.81326077 0 5 C-1.32 8.63 -2.64 12.26 -4 16 C-4.66 16 -5.32 16 -6 16 C-4.43551329 10.3856009 -2.83604813 5.13189662 0 0 Z " fill="#A8A8A8" transform="translate(171,122)"/>
<path d="M0 0 C8.25 0 16.5 0 25 0 C24.67 0.66 24.34 1.32 24 2 C16.08 2.33 8.16 2.66 0 3 C0 2.01 0 1.02 0 0 Z " fill="#FAFAFA" transform="translate(49,42)"/>
<path d="M0 0 C4.875 0.875 4.875 0.875 6 2 C6.04063832 3.66617115 6.042721 5.33388095 6 7 C4.0085944 7.38133299 2.00720923 7.71325582 0 8 C-0.33 7.67 -0.66 7.34 -1 7 C-0.71269945 4.66055264 -0.38063221 2.3260857 0 0 Z " fill="#505050" transform="translate(214,126)"/>
<path d="M0 0 C1.65 0 3.3 0 5 0 C1.32167983 4.52615993 -2.41086363 8.39424999 -7 12 C-7.33 10.68 -7.66 9.36 -8 8 C-7.50628906 7.59007812 -7.01257813 7.18015625 -6.50390625 6.7578125 C-5.86324219 6.21898437 -5.22257812 5.68015625 -4.5625 5.125 C-3.92441406 4.59132813 -3.28632813 4.05765625 -2.62890625 3.5078125 C-0.89194996 2.0777243 -0.89194996 2.0777243 0 0 Z " fill="#F0F0F0" transform="translate(326,42)"/>
<path d="M0 0 C0.66 0 1.32 0 2 0 C2 2.31 2 4.62 2 7 C-0.64 7 -3.28 7 -6 7 C-6 5.02 -6 3.04 -6 1 C-3.525 1.495 -3.525 1.495 -1 2 C-0.67 1.34 -0.34 0.68 0 0 Z " fill="#737373" transform="translate(231,126)"/>
<path d="M0 0 C2.475 0.495 2.475 0.495 5 1 C5 2.65 5 4.3 5 6 C4.01 6.33 3.02 6.66 2 7 C2 7.66 2 8.32 2 9 C1.34 9 0.68 9 0 9 C0 6.03 0 3.06 0 0 Z " fill="#191919" transform="translate(185,122)"/>
<path d="M0 0 C5.75 0.875 5.75 0.875 8 2 C8 2.99 8 3.98 8 5 C5 7 5 7 2 7 C1.34 4.69 0.68 2.38 0 0 Z " fill="#292929" transform="translate(99,66)"/>
<path d="M0 0 C1.65 0 3.3 0 5 0 C5.125 3.375 5.125 3.375 5 7 C4.34 7.66 3.68 8.32 3 9 C2.67 8.01 2.34 7.02 2 6 C1.01 6.33 0.02 6.66 -1 7 C-0.67 4.69 -0.34 2.38 0 0 Z " fill="#C4C4C4" transform="translate(80,66)"/>
<path d="M0 0 C0.33 0.66 0.66 1.32 1 2 C1.66 2 2.32 2 3 2 C1.77036367 5.68890899 -0.03683203 8.64361605 -2 12 C-3.32 11.67 -4.64 11.34 -6 11 C-5 9 -5 9 -3 6 C-1.98440599 4.00787329 -0.98210371 2.0088485 0 0 Z " fill="#636363" transform="translate(126,122)"/>
<path d="M0 0 C0.25 2.3125 0.25 2.3125 0 5 C-2.23738248 7.40311451 -3.46340904 7.96341425 -6.75 8.1875 C-7.4925 8.125625 -8.235 8.06375 -9 8 C-8.01 7.67 -7.02 7.34 -6 7 C-5.9175 6.21625 -5.835 5.4325 -5.75 4.625 C-5 2 -5 2 -3 0.6875 C-1 0 -1 0 0 0 Z " fill="#EBEBEB" transform="translate(83,71)"/>
<path d="M0 0 C2 2 2 2 3 5 C3.66 5.66 4.32 6.32 5 7 C3.875 8.5 3.875 8.5 2 10 C-1.1875 10.1875 -1.1875 10.1875 -4 10 C-4 8.35 -4 6.7 -4 5 C-3.67 5.99 -3.34 6.98 -3 8 C-1.68 8 -0.36 8 1 8 C0.67 5.36 0.34 2.72 0 0 Z " fill="#444444" transform="translate(83,45)"/>
<path d="M0 0 C2.12508244 3.18762365 2.5020163 5.26512223 3 9 C1.02 9 -0.96 9 -3 9 C-2.01 6.03 -1.02 3.06 0 0 Z " fill="#525252" transform="translate(141,122)"/>
<path d="M0 0 C0.66 0 1.32 0 2 0 C1.74658809 3.42106076 0.69217816 4.30782184 -1.8125 6.8125 C-5 9 -5 9 -7.19921875 8.63671875 C-7.79347656 8.42660156 -8.38773437 8.21648437 -9 8 C-7.8803014 6.99406757 -6.7540588 5.9954151 -5.625 5 C-4.68527344 4.1646875 -4.68527344 4.1646875 -3.7265625 3.3125 C-2 2 -2 2 0 2 C0 1.34 0 0.68 0 0 Z " fill="#181818" transform="translate(123,62)"/>
<path d="M0 0 C0.5775 0.165 1.155 0.33 1.75 0.5 C4.26664369 1.14462031 4.26664369 1.14462031 8 1 C10.25 3 10.25 3 12 5 C10.68 4.67 9.36 4.34 8 4 C7.67 4.99 7.34 5.98 7 7 C5.83040013 6.02433888 4.66438823 5.044375 3.5 4.0625 C2.8503125 3.51722656 2.200625 2.97195312 1.53125 2.41015625 C1.0259375 1.94480469 0.520625 1.47945312 0 1 C0 0.67 0 0.34 0 0 Z " fill="#D6D6D6" transform="translate(210,55)"/>
<path d="M0 0 C2.15377564 2.62198774 3.40072174 4.64404172 4 8 C1.69 8 -0.62 8 -3 8 C-2.01 5.36 -1.02 2.72 0 0 Z " fill="#454545" transform="translate(171,125)"/>
<path d="M0 0 C1.32 0 2.64 0 4 0 C4 0.66 4 1.32 4 2 C3.01 2.33 2.02 2.66 1 3 C1 3.66 1 4.32 1 5 C2.32 5.66 3.64 6.32 5 7 C2.625 7.625 2.625 7.625 0 8 C-0.66 7.34 -1.32 6.68 -2 6 C-1.44444444 1.44444444 -1.44444444 1.44444444 0 0 Z " fill="#5C5C5C" transform="translate(203,126)"/>
<path d="M0 0 C2.475 0.495 2.475 0.495 5 1 C5 2.32 5 3.64 5 5 C4.01 5 3.02 5 2 5 C2 5.66 2 6.32 2 7 C1.34 7 0.68 7 0 7 C0 4.69 0 2.38 0 0 Z " fill="#626262" transform="translate(238,126)"/>
<path d="M0 0 C0.66 0.33 1.32 0.66 2 1 C-1.66666667 4.66666667 -5.33333333 8.33333333 -9 12 C-9 8 -9 8 -7.03125 5.859375 C-6.1959375 5.16328125 -5.360625 4.4671875 -4.5 3.75 C-3.6646875 3.04359375 -2.829375 2.3371875 -1.96875 1.609375 C-0.99421875 0.81273438 -0.99421875 0.81273438 0 0 Z " fill="#3D3D3D" transform="translate(127,69)"/>
<path d="M0 0 C5.75 1.625 5.75 1.625 8 5 C5.6875 5.625 5.6875 5.625 3 6 C2.01 5.34 1.02 4.68 0 4 C0 2.68 0 1.36 0 0 Z " fill="#E3E3E3" transform="translate(317,65)"/>
<path d="M0 0 C3.76024616 2.50683077 4.39192086 4.86493934 6 9 C4.35 9 2.7 9 1 9 C0.67 6.03 0.34 3.06 0 0 Z " fill="#999999" transform="translate(145,129)"/>
<path d="M0 0 C0.99 0 1.98 0 3 0 C3.33 2.31 3.66 4.62 4 7 C2.02 7 0.04 7 -2 7 C-1.34 4.69 -0.68 2.38 0 0 Z " fill="#757575" transform="translate(98,126)"/>
<path d="M0 0 C2.24578708 2.24578708 2.85650419 4.069792 4 7 C4.99 8.485 4.99 8.485 6 10 C2.11980141 8.74155722 0.0588158 7.57583797 -2 4 C-2 3.01 -2 2.02 -2 1 C-1.34 0.67 -0.68 0.34 0 0 Z " fill="#A6A6A6" transform="translate(189,128)"/>
<path d="M0 0 C1.98 0.99 1.98 0.99 4 2 C4.66 1.34 5.32 0.68 6 0 C6 1.98 6 3.96 6 6 C5.01 5.67 4.02 5.34 3 5 C3 4.34 3 3.68 3 3 C2.34 3 1.68 3 1 3 C0.67 3.99 0.34 4.98 0 6 C0 4.02 0 2.04 0 0 Z " fill="#828282" transform="translate(259,127)"/>
<path d="M0 0 C2 2 2 2 2 6 C2.99 6 3.98 6 5 6 C5 7.32 5 8.64 5 10 C4.01 10 3.02 10 2 10 C0.39644899 6.49223216 -0.22036864 3.85645121 0 0 Z " fill="#AAAAAA" transform="translate(118,127)"/>
<path d="M0 0 C2.97 0.495 2.97 0.495 6 1 C5.34 2.98 4.68 4.96 4 7 C3.34 7 2.68 7 2 7 C1.34 4.69 0.68 2.38 0 0 Z " fill="#5A5A5A" transform="translate(270,126)"/>
<path d="M0 0 C0.33 0.66 0.66 1.32 1 2 C-3.82142857 8.29464286 -3.82142857 8.29464286 -8 9 C-7.04270084 7.87411986 -6.08412105 6.7493285 -5.125 5.625 C-4.59132813 4.99851562 -4.05765625 4.37203125 -3.5078125 3.7265625 C-2.38567993 2.44163349 -1.20628025 1.20628025 0 0 Z " fill="#CDCDCD" transform="translate(294,70)"/>
<path d="M0 0 C2.22189824 2.22189824 2.92598892 4.08482708 4 7 C2.35 7 0.7 7 -1 7 C-0.67 4.69 -0.34 2.38 0 0 Z " fill="#868686" transform="translate(176,131)"/>
<path d="M0 0 C0.99 0.33 1.98 0.66 3 1 C3.33 2.65 3.66 4.3 4 6 C2.35 6 0.7 6 -1 6 C-0.67 4.02 -0.34 2.04 0 0 Z " fill="#868686" transform="translate(249,127)"/>
<path d="M0 0 C5.75 0.875 5.75 0.875 8 2 C8 2.99 8 3.98 8 5 C6 4 4 3 2 2 C1.67 2.99 1.34 3.98 1 5 C0.67 3.35 0.34 1.7 0 0 Z " fill="#4E4E4E" transform="translate(99,66)"/>
</svg>
